# xmcd
#
# Track frame offsets:
#	150
#	12315
#	26383
#	38178
#	51753
#	66310
#	81235
#	94445
#	111008
#	124713
#	137088
#	149570
#
# Disc length: 2153 seconds
#
# Revision: 1
# Processed by: cddbd v1.5.2PL0 Copyright (c) Steve Scherf et al.
# Submitted via: audiograbber 1.83.01
#
DISCID=a908670c
DTITLE=Tom Astor - Hallo, guten Morgen Deutschland
DYEAR=1900
DGENRE=Country
TTITLE0=Hallo, guten Morgen Deutschland
TTITLE1=Die fünfziger Jahre sterben nie
TTITLE2=Ein unbekannter Stuntman
TTITLE3=Alter Freund, überhol dich nicht selber
TTITLE4=Susie, Susie
TTITLE5=Wir sind wieder schlecht bei Kasse
TTITLE6=Ich bin ein undressierter Mann
TTITLE7=5 vor 12
TTITLE8=Sie ist wie ein neues Leben
TTITLE9=Ich wünsch dir Hals- und Beinbruch
TTITLE10=Du bist mein bester Freund
TTITLE11=Hallo, guten Abend Deutschland
EXTD=
EXTT0=
EXTT1=
EXTT2=
EXTT3=
EXTT4=
EXTT5=
EXTT6=
EXTT7=
EXTT8=
EXTT9=
EXTT10=
EXTT11=
PLAYORDER=
